<svg xmlns="http://www.w3.org/2000/svg" width="1200" height="630" viewBox="0 0 1200 630" role="img" aria-labelledby="title desc">
  <title id="title">PAUSE AI — Own the interruption</title>
  <desc id="desc">PAUSE AI product mark and receiver-owned attention message</desc>
  <defs>
    <radialGradient id="glow" cx="0" cy="0" r="1" gradientTransform="translate(1035 85) rotate(136) scale(560 480)" gradientUnits="userSpaceOnUse">
      <stop stop-color="#4b98ff" stop-opacity=".23"/>
      <stop offset="1" stop-color="#4b98ff" stop-opacity="0"/>
    </radialGradient>
    <linearGradient id="line" x1="790" y1="90" x2="1130" y2="550" gradientUnits="userSpaceOnUse">
      <stop stop-color="#4b98ff"/>
      <stop offset="1" stop-color="#a8c5a5"/>
    </linearGradient>
  </defs>
  <rect width="1200" height="630" rx="34" fill="#11130f"/>
  <rect width="1200" height="630" rx="34" fill="url(#glow)"/>
  <path d="M760 80v470" stroke="#f4f0e7" stroke-opacity=".11"/>
  <path d="M903 432 1012 245a16 16 0 0 1 28 0l109 187" fill="none" stroke="url(#line)" stroke-width="26" stroke-linecap="round" stroke-linejoin="round"/>
  <rect x="72" y="70" width="64" height="64" rx="17" fill="#171a16" stroke="#f4f0e7" stroke-opacity=".18" stroke-width="1.5"/>
  <path d="M88.5 112.5 102.1 90a2.2 2.2 0 0 1 3.8 0l13.6 22.5" fill="none" stroke="#4b98ff" stroke-width="6.5" stroke-linecap="round" stroke-linejoin="round"/>
  <text x="158" y="111" fill="#f4f0e7" font-family="Arial, Helvetica, sans-serif" font-size="30" font-weight="700" letter-spacing="4">PAUSE AI</text>
  <text x="72" y="312" fill="#f4f0e7" font-family="Arial, Helvetica, sans-serif" font-size="72" font-weight="620" letter-spacing="-3">Own the interruption.</text>
  <text x="72" y="378" fill="#b8b8af" font-family="Arial, Helvetica, sans-serif" font-size="28">A calm, private boundary for cross-app notifications.</text>
  <circle cx="82" cy="513" r="7" fill="#a8c5a5"/>
  <text x="106" y="522" fill="#d8d8cf" font-family="Arial, Helvetica, sans-serif" font-size="21">Receiver-owned attention</text>
</svg>
